<svg width="29" height="28" viewBox="0 0 29 28" fill="none" xmlns="http://www.w3.org/2000/svg">
<path opacity="0.4" d="M21.4415 8.99161L21.2782 8.89828L19.6565 7.96495L16.3082 6.02828C15.2815 5.43328 13.7182 5.43328 12.6915 6.02828L9.3432 7.96495L7.72154 8.90995L7.51154 9.02661C5.4232 10.4266 5.2832 10.6833 5.2832 12.9349V18.3133C5.2832 20.5649 5.4232 20.8216 7.5582 22.2566L12.6915 25.2199C13.2049 25.5233 13.8465 25.6633 14.4999 25.6633C15.1415 25.6633 15.7949 25.5233 16.3082 25.2199L21.4882 22.2216C23.5765 20.8216 23.7165 20.5649 23.7165 18.3133V12.9349C23.7165 10.6833 23.5765 10.4266 21.4415 8.99161Z" fill="white"/>
<path d="M7.72168 8.91008L9.34335 7.96508L12.54 6.12174L12.6917 6.02841C13.7183 5.43341 15.2817 5.43341 16.3083 6.02841L16.46 6.12174L19.6567 7.96508L21.2783 8.89841V6.40174C21.2783 3.77674 19.8317 2.33008 17.2067 2.33008H11.7817C9.15668 2.33008 7.72168 3.77674 7.72168 6.40174V8.91008Z" fill="white"/>
<path d="M17.8132 15.5612L17.0899 16.4479C16.9732 16.5762 16.8915 16.8329 16.9032 17.0079L16.9732 18.1512C17.0199 18.8512 16.5182 19.2129 15.8649 18.9562L14.8032 18.5362C14.6399 18.4779 14.3599 18.4779 14.1965 18.5362L13.1349 18.9562C12.4815 19.2129 11.9799 18.8512 12.0265 18.1512L12.0965 17.0079C12.1082 16.8329 12.0265 16.5762 11.9099 16.4479L11.1865 15.5612C10.7315 15.0245 10.9299 14.4295 11.6065 14.2545L12.7149 13.9745C12.8899 13.9279 13.0999 13.7645 13.1932 13.6129L13.8115 12.6562C14.1965 12.0612 14.8032 12.0612 15.1882 12.6562L15.8065 13.6129C15.8999 13.7645 16.1099 13.9279 16.2849 13.9745L17.3932 14.2545C18.0699 14.4295 18.2682 15.0245 17.8132 15.5612Z" fill="white"/>
</svg>
