<svg width="29" height="28" viewBox="0 0 29 28" fill="none" xmlns="http://www.w3.org/2000/svg">
<path d="M25.1052 8.14572C24.1135 7.04905 22.4569 6.50072 20.0535 6.50072H19.7735V6.45405C19.7735 4.49405 19.7735 2.06738 15.3869 2.06738H13.6135C9.22687 2.06738 9.22687 4.50572 9.22687 6.45405V6.51238H8.94687C6.53187 6.51238 4.88687 7.06072 3.89521 8.15738C2.74021 9.44072 2.77521 11.1674 2.89187 12.3457L2.90354 12.4274L3.02021 13.6524C3.03187 13.664 3.05521 13.6874 3.07854 13.699C3.46354 13.9557 3.86021 14.2124 4.28021 14.4457C4.44354 14.5507 4.61854 14.644 4.79354 14.7374C6.78854 15.8341 8.98187 16.569 11.2102 16.9307C11.3152 18.0274 11.7935 19.3107 14.3485 19.3107C16.9035 19.3107 17.4052 18.039 17.4869 16.9074C19.8669 16.5224 22.1652 15.694 24.2419 14.4807C24.3119 14.4457 24.3585 14.4107 24.4169 14.3757C24.9535 14.0724 25.4552 13.7457 25.9452 13.3841C25.9685 13.3724 25.9919 13.349 26.0035 13.3257L26.0502 12.9057L26.1085 12.3574C26.1202 12.2874 26.1202 12.229 26.1319 12.1474C26.2252 10.969 26.2019 9.35905 25.1052 8.14572ZM15.7719 16.1374C15.7719 17.374 15.7719 17.5607 14.3369 17.5607C12.9019 17.5607 12.9019 17.339 12.9019 16.149V14.679H15.7719V16.1374ZM10.8952 6.50072V6.45405C10.8952 4.47072 10.8952 3.73572 13.6135 3.73572H15.3869C18.1052 3.73572 18.1052 4.48238 18.1052 6.45405V6.51238H10.8952V6.50072Z" fill="white"/>
<path opacity="0.4" d="M24.4167 14.3537C24.3584 14.3887 24.3 14.4237 24.2417 14.4587C22.165 15.672 19.8667 16.4887 17.4867 16.8854C17.3934 18.0054 16.9034 19.2887 14.3484 19.2887C11.7934 19.2887 11.3034 18.017 11.21 16.9087C8.98169 16.5587 6.78835 15.8237 4.79335 14.7154C4.61835 14.622 4.44335 14.5287 4.28002 14.4237C3.86002 14.1904 3.46335 13.9337 3.07835 13.677C3.05502 13.6654 3.03169 13.642 3.02002 13.6304L3.73169 21.2254C3.97669 23.547 4.93335 25.9387 10.0667 25.9387H18.9567C24.09 25.9387 25.0467 23.547 25.2917 21.2137L26.0267 13.3037C26.015 13.327 25.9917 13.3504 25.9684 13.362C25.4667 13.7237 24.9534 14.062 24.4167 14.3537Z" fill="white"/>
</svg>
