<svg width="25" height="24" viewBox="0 0 25 24" fill="none" xmlns="http://www.w3.org/2000/svg">
<path opacity="0.6" d="M10.61 4C10.53 4.3 10.5 4.63 10.5 5V8H5.5V6C5.5 4.9 6.4 4 7.5 4H10.61Z" fill="white"/>
<path d="M10.5 19V8H5.5C3.5 8 2.5 9 2.5 11V19C2.5 21 3.5 22 5.5 22H13.5C11.5 22 10.5 21 10.5 19ZM7.25 17C7.25 17.41 6.91 17.75 6.5 17.75C6.09 17.75 5.75 17.41 5.75 17V13C5.75 12.59 6.09 12.25 6.5 12.25C6.91 12.25 7.25 12.59 7.25 13V17Z" fill="white"/>
<path opacity="0.4" d="M14.5 22H13.5C11.5 22 10.5 21 10.5 19V5C10.5 3 11.5 2 13.5 2H19.5C21.5 2 22.5 3 22.5 5V19C22.5 21 21.5 22 19.5 22H18.5" fill="white"/>
<path d="M18.5 18V22H14.5V18C14.5 17.45 14.95 17 15.5 17H17.5C18.05 17 18.5 17.45 18.5 18Z" fill="white"/>
<path d="M14.5 13.75C14.09 13.75 13.75 13.41 13.75 13V8C13.75 7.59 14.09 7.25 14.5 7.25C14.91 7.25 15.25 7.59 15.25 8V13C15.25 13.41 14.91 13.75 14.5 13.75Z" fill="white"/>
<path d="M18.5 13.75C18.09 13.75 17.75 13.41 17.75 13V8C17.75 7.59 18.09 7.25 18.5 7.25C18.91 7.25 19.25 7.59 19.25 8V13C19.25 13.41 18.91 13.75 18.5 13.75Z" fill="white"/>
</svg>
