<svg width="29" height="28" viewBox="0 0 29 28" fill="none" xmlns="http://www.w3.org/2000/svg">
<path opacity="0.4" d="M18.5602 3.5H9.2735C5.2485 3.5 2.8335 5.90333 2.8335 9.94V19.215C2.8335 23.2633 5.2485 25.6667 9.2735 25.6667H18.5485C22.5852 25.6667 24.9885 23.2633 24.9885 19.2267V9.94C25.0002 5.90333 22.5852 3.5 18.5602 3.5Z" fill="white"/>
<path d="M25.0237 3.47658C22.9354 1.37658 20.8937 1.32991 18.747 3.47658L17.4287 4.78325C17.312 4.89991 17.277 5.06325 17.3237 5.21491C18.1404 8.07325 20.427 10.3599 23.2854 11.1766C23.3204 11.1882 23.3787 11.1882 23.4137 11.1882C23.5304 11.1882 23.647 11.1416 23.7287 11.0599L25.0237 9.75325C26.0854 8.69158 26.6104 7.67658 26.6104 6.63825C26.6104 5.58825 26.0854 4.54991 25.0237 3.47658Z" fill="white"/>
<path d="M21.3371 12.1566C21.0221 12.005 20.7188 11.8533 20.4388 11.6783C20.2054 11.5383 19.9721 11.3866 19.7504 11.2233C19.5638 11.1066 19.3538 10.9316 19.1438 10.7566C19.1204 10.745 19.0504 10.6866 18.9571 10.5933C18.5954 10.3016 18.2104 9.90498 17.8488 9.47331C17.8254 9.44998 17.7554 9.37998 17.6971 9.27498C17.5804 9.14665 17.4054 8.92498 17.2538 8.67998C17.1254 8.51665 16.9738 8.28331 16.8338 8.03831C16.6588 7.74665 16.5071 7.45498 16.3671 7.15165C16.2154 6.82498 16.0988 6.52165 15.9938 6.22998L9.71711 12.5066C9.30878 12.915 8.91211 13.685 8.83044 14.2566L8.32878 17.7333C8.22378 18.4683 8.42211 19.1566 8.87711 19.6116C9.26211 19.9966 9.78711 20.195 10.3704 20.195C10.4988 20.195 10.6271 20.1833 10.7554 20.1716L14.2204 19.6816C14.7921 19.6 15.5621 19.215 15.9704 18.795L22.2471 12.5183C21.9554 12.425 21.6638 12.2966 21.3371 12.1566Z" fill="white"/>
</svg>
