<svg width="72" height="72" viewBox="0 0 72 72" fill="none" xmlns="http://www.w3.org/2000/svg">
<rect width="72" height="72" rx="14" fill="#3F3A52"/>
<path fill-rule="evenodd" clip-rule="evenodd" d="M40.8151 15.0607C47.9174 16.1288 53.5334 21.7427 54.5994 28.845C54.7944 30.1428 53.7501 31.3063 52.4371 31.3063H40.5182C39.3222 31.3063 38.3516 30.3357 38.3516 29.1397V17.2208C38.3516 15.9078 39.5172 14.8657 40.8151 15.0607V15.0607Z" stroke="white" stroke-width="1.5" stroke-linecap="round" stroke-linejoin="round"/>
<path fill-rule="evenodd" clip-rule="evenodd" d="M51.5657 48.1085C53.1235 46.0047 54.1895 43.5152 54.5947 40.809C54.7897 39.5112 53.7453 38.3477 52.4323 38.3477H43.5772C41.6467 38.3477 40.6803 40.6812 42.0453 42.0462L48.3092 48.31C49.2322 49.2308 50.7878 49.1572 51.5657 48.1085V48.1085Z" stroke="white" stroke-width="1.5" stroke-linecap="round" stroke-linejoin="round"/>
<path fill-rule="evenodd" clip-rule="evenodd" d="M28.8699 24.4444C19.9151 25.7747 13.3176 34.3309 15.1961 43.9921C16.4463 50.4206 21.6419 55.5924 28.0748 56.8166C32.9519 57.7439 37.5409 56.5154 41.0574 53.9176C42.1104 53.1397 42.1906 51.5797 41.2654 50.6546L31.9401 41.3292C31.5328 40.9219 31.3053 40.3716 31.3053 39.7974V26.6024C31.3053 25.3002 30.1591 24.2537 28.8699 24.4444V24.4444Z" stroke="white" stroke-width="1.5" stroke-linecap="round" stroke-linejoin="round"/>
</svg>
