<svg width="32" height="32" viewBox="0 0 32 32" fill="none" xmlns="http://www.w3.org/2000/svg">
<path d="M13.3044 5.86803C11.2567 5.86803 9.29292 6.68147 7.84499 8.1294C6.39705 9.57734 5.58361 11.5412 5.58361 13.5888C5.58361 15.6365 6.39705 17.6003 7.84499 19.0483C9.29292 20.4962 11.2567 21.3097 13.3044 21.3097C15.3521 21.3097 17.3159 20.4962 18.7639 19.0483C20.2118 17.6003 21.0252 15.6365 21.0252 13.5888C21.0252 11.5412 20.2118 9.57734 18.7639 8.1294C17.3159 6.68147 15.3521 5.86803 13.3044 5.86803ZM3.01001 13.5888C3.01024 11.9506 3.40148 10.336 4.1512 8.87933C4.90092 7.42266 5.98747 6.16596 7.32055 5.21367C8.65363 4.26138 10.1947 3.64101 11.8158 3.4041C13.4369 3.1672 15.0911 3.32061 16.6409 3.85158C18.1907 4.38255 19.5915 5.27576 20.7267 6.45696C21.8619 7.63816 22.6988 9.07324 23.1679 10.6429C23.6369 12.2126 23.7246 13.8716 23.4235 15.482C23.1225 17.0924 22.4415 18.6077 21.437 19.9019L28.369 26.8339C28.6034 27.0766 28.7331 27.4016 28.7302 27.739C28.7273 28.0764 28.5919 28.3992 28.3533 28.6378C28.1148 28.8763 27.792 29.0117 27.4546 29.0146C27.1172 29.0175 26.7922 28.8878 26.5495 28.6534L19.6175 21.7214C18.0958 22.9028 16.2731 23.6336 14.3567 23.8305C12.4403 24.0274 10.5072 23.6826 8.777 22.8354C7.04684 21.9881 5.58914 20.6724 4.56965 19.0378C3.55016 17.4032 3.0098 15.5153 3.01001 13.5888Z" fill="#ADA8C4"/>
</svg>
