<svg width="29" height="28" viewBox="0 0 29 28" fill="none" xmlns="http://www.w3.org/2000/svg">
<path opacity="0.4" d="M21.9433 14.9824V20.7341C21.9433 22.2158 20.7883 23.8024 19.4 24.2691L15.6783 25.5058C15.025 25.7274 13.9633 25.7274 13.3216 25.5058L9.59997 24.2691C8.19997 23.8024 7.05664 22.2158 7.05664 20.7341L7.06831 14.9824L12.225 18.3424C13.485 19.1708 15.5616 19.1708 16.8216 18.3424L21.9433 14.9824Z" fill="white"/>
<path d="M23.8098 7.53828L16.8214 2.95328C15.5614 2.12495 13.4848 2.12495 12.2248 2.95328L5.20145 7.53828C2.94978 8.99661 2.94978 12.2983 5.20145 13.7683L7.06811 14.9816L12.2248 18.3416C13.4848 19.1699 15.5614 19.1699 16.8214 18.3416L21.9431 14.9816L23.5414 13.9316V17.5016C23.5414 17.9799 23.9381 18.3766 24.4164 18.3766C24.8948 18.3766 25.2914 17.9799 25.2914 17.5016V11.7616C25.7581 10.2566 25.2798 8.50661 23.8098 7.53828Z" fill="white"/>
</svg>
