<svg width="33" height="28" viewBox="0 0 33 28" fill="none" xmlns="http://www.w3.org/2000/svg">
<path fill-rule="evenodd" clip-rule="evenodd" d="M28.9003 0.186726C29.2967 0.0213901 29.7305 -0.035633 30.1567 0.0215908C30.5829 0.0788145 30.9858 0.248194 31.3235 0.512098C31.6612 0.776003 31.9214 1.12479 32.0769 1.52214C32.2324 1.9195 32.2776 2.35091 32.2078 2.77146L28.5698 24.6399C28.2169 26.7494 25.8814 27.9591 23.9293 26.9083C22.2963 26.0293 19.871 24.6749 17.6894 23.2617C16.5987 22.5543 13.2574 20.2891 13.6681 18.6773C14.021 17.299 19.6352 12.12 22.8433 9.04094C24.1025 7.83124 23.5282 7.13339 22.0413 8.24613C18.3487 11.0089 12.4201 15.2103 10.4599 16.393C8.73075 17.4358 7.82926 17.6138 6.75133 17.4358C4.78475 17.1115 2.96092 16.6091 1.47235 15.9971C-0.539146 15.1705 -0.441298 12.43 1.47075 11.632L28.9003 0.186726Z" fill="white"/>
</svg>
